<svg width="22" height="22" viewBox="0 0 22 22" fill="none" xmlns="http://www.w3.org/2000/svg">
<path d="M20.011 13.0966C20.5329 12.9559 20.7939 12.8855 20.8969 12.7509C21 12.6164 21 12.3999 21 11.967V10.0333C21 9.60037 21 9.38387 20.8969 9.24937C20.7938 9.11477 20.5329 9.04437 20.011 8.90365C18.0606 8.37766 16.8399 6.33858 17.3433 4.40094C17.4817 3.86806 17.5509 3.60163 17.4848 3.44536C17.4187 3.28909 17.2291 3.18141 16.8497 2.96603L15.125 1.9868C14.7528 1.77546 14.5667 1.66979 14.3997 1.69229C14.2326 1.71479 14.0442 1.9028 13.6672 2.2788C12.208 3.73455 9.7936 3.73449 8.33434 2.27871C7.95743 1.9027 7.76898 1.7147 7.60193 1.69219C7.43489 1.66969 7.24877 1.77536 6.87653 1.9867L5.15184 2.96594C4.77253 3.1813 4.58287 3.28898 4.51678 3.44522C4.45068 3.60147 4.51987 3.86794 4.65825 4.40087C5.16137 6.33857 3.93972 8.3777 1.98902 8.90367C1.46712 9.04437 1.20617 9.11477 1.10308 9.24927C1 9.38387 1 9.60037 1 10.0333V11.967C1 12.3999 1 12.6164 1.10308 12.7509C1.20615 12.8855 1.46711 12.9559 1.98902 13.0966C3.9394 13.6226 5.16008 15.6617 4.65672 17.5993C4.51829 18.1322 4.44907 18.3986 4.51516 18.5549C4.58126 18.7112 4.77092 18.8189 5.15025 19.0342L6.87495 20.0135C7.24721 20.2248 7.43334 20.3305 7.6004 20.308C7.76746 20.2855 7.95588 20.0974 8.33271 19.7214C9.7927 18.2645 12.2088 18.2644 13.6689 19.7213C14.0457 20.0974 14.2341 20.2854 14.4012 20.3079C14.5682 20.3304 14.7544 20.2247 15.1266 20.0134L16.8513 19.0341C17.2307 18.8188 17.4204 18.7111 17.4864 18.5548C17.5525 18.3985 17.4833 18.1321 17.3448 17.5992C16.8412 15.6617 18.0609 13.6227 20.011 13.0966Z" stroke="black" stroke-width="1.5" stroke-linecap="round"/>
</svg>
